<svg xmlns="http://www.w3.org/2000/svg" width="103" height="103" viewBox="0 0 103 103" fill="none">
    <path opacity="0.4" fill-rule="evenodd" clip-rule="evenodd" d="M88.8535 43.2845L85.8537 40.2845C84.4846 38.9112 83.7336 37.0829 83.7336 35.1474V30.8557C83.7336 24.4654 78.5321 19.2682 72.1461 19.2682H67.8458C65.9017 19.2682 64.0778 18.5172 62.713 17.1524L59.6616 14.1053C55.1253 9.60766 47.778 9.62911 43.2761 14.1525L40.2847 17.1524C38.9071 18.5214 37.0831 19.2725 35.1433 19.2725H30.8473C24.5343 19.2768 19.3843 24.3581 19.2684 30.6497C19.2641 30.7184 19.2598 30.787 19.2598 30.86V35.1388C19.2598 37.0786 18.5088 38.9026 17.1397 40.2716L14.1012 43.3145C14.0969 43.3274 14.0841 43.3317 14.0755 43.3403C9.59068 47.8809 9.6293 55.2282 14.1484 59.7044L17.1483 62.7129C18.5131 64.0819 19.2684 65.9016 19.2684 67.8414V72.1545C19.2684 78.5405 24.4613 83.7377 30.8473 83.7377H35.1347C37.0788 83.742 38.9028 84.4931 40.2675 85.8535L43.3276 88.9049C45.5077 91.0722 48.4003 92.2653 51.4774 92.2653H51.5289C54.6232 92.2524 57.5244 91.0336 59.696 88.8491L62.7044 85.845C64.0563 84.4974 65.9275 83.7249 67.8373 83.7249H72.1547C78.5278 83.7249 83.725 78.5362 83.7379 72.1545V67.85C83.7379 65.9145 84.4889 64.0905 85.8494 62.7215L88.9008 59.6701C93.407 55.1381 93.3813 47.7864 88.8535 43.2845Z" fill="#066B7E"/>
    <path fill-rule="evenodd" clip-rule="evenodd" d="M66.8799 45.3119L49.4 62.8004C48.7948 63.4056 47.9751 63.7446 47.1211 63.7446C46.267 63.7446 45.4473 63.4056 44.8465 62.8004L36.3617 54.3029C35.1085 53.0412 35.1085 51.0026 36.366 49.7452C37.6277 48.492 39.662 48.4963 40.9195 49.7495L47.1254 55.9681L62.3265 40.7584C63.5839 39.5009 65.6225 39.5009 66.8799 40.7584C68.1374 42.0159 68.1374 44.0544 66.8799 45.3119Z" fill="#066B7E"/>
</svg>