<svg xmlns="http://www.w3.org/2000/svg" width="169" height="50" viewBox="0 0 169 50" fill="none">
    <rect x="0.625" y="0.625" width="167.75" height="48.75" rx="9.375" fill="white"/>
    <rect x="0.625" y="0.625" width="167.75" height="48.75" rx="9.375" stroke="white" stroke-width="1.25"/>
    <path d="M85.2962 27.1886C82.3518 27.1886 79.952 29.4248 79.952 32.5048C79.952 35.5661 82.3518 37.8211 85.2962 37.8211C88.2418 37.8211 90.6416 35.5661 90.6416 32.5048C90.6403 29.4248 88.2405 27.1886 85.2962 27.1886ZM85.2962 35.7286C83.6825 35.7286 82.2917 34.3998 82.2917 32.5061C82.2917 30.5923 83.6838 29.2836 85.2962 29.2836C86.9098 29.2836 88.3006 30.5923 88.3006 32.5061C88.3006 34.3986 86.9098 35.7286 85.2962 35.7286ZM73.6364 27.1886C70.6921 27.1886 68.2923 29.4248 68.2923 32.5048C68.2923 35.5661 70.6921 37.8211 73.6364 37.8211C76.582 37.8211 78.9818 35.5661 78.9818 32.5048C78.9818 29.4248 76.582 27.1886 73.6364 27.1886ZM73.6364 35.7286C72.0228 35.7286 70.632 34.3998 70.632 32.5061C70.632 30.5923 72.024 29.2836 73.6364 29.2836C75.2501 29.2836 76.6409 30.5923 76.6409 32.5061C76.6421 34.3986 75.2501 35.7286 73.6364 35.7286ZM59.7684 28.8211V31.0761H65.1739C65.0124 32.3448 64.5893 33.2711 63.9433 33.9148C63.1572 34.6998 61.9266 35.5661 59.7684 35.5661C56.441 35.5661 53.8396 32.8873 53.8396 29.5648C53.8396 26.2423 56.441 23.5636 59.7684 23.5636C61.5636 23.5636 62.8743 24.2686 63.8419 25.1748L65.4355 23.5836C64.0835 22.2948 62.2896 21.3086 59.7684 21.3086C55.2104 21.3086 51.3785 25.0136 51.3785 29.5648C51.3785 34.1161 55.2104 37.8211 59.7684 37.8211C62.2283 37.8211 64.0848 37.0148 65.5357 35.5048C67.0279 34.0148 67.4923 31.9198 67.4923 30.2286C67.4923 29.7061 67.4523 29.2223 67.3709 28.8198H59.7684V28.8211ZM116.487 30.5723C116.044 29.3848 114.692 27.1886 111.929 27.1886C109.187 27.1886 106.907 29.3436 106.907 32.5048C106.907 35.4848 109.166 37.8211 112.191 37.8211C114.631 37.8211 116.043 36.3311 116.629 35.4648L114.814 34.2561C114.209 35.1423 113.381 35.7261 112.191 35.7261C111.002 35.7261 110.154 35.1823 109.61 34.1148L116.729 31.1748L116.487 30.5723ZM109.227 32.3448C109.166 30.2898 110.82 29.2436 112.011 29.2436C112.938 29.2436 113.724 29.7073 113.987 30.3711L109.227 32.3448ZM103.439 37.4998H105.778V21.8736H103.439V37.4998ZM99.6061 28.3773H99.526C99.0014 27.7523 97.9924 27.1886 96.7231 27.1886C94.0604 27.1886 91.6205 29.5248 91.6205 32.5261C91.6205 35.5061 94.0604 37.8223 96.7231 37.8223C97.9937 37.8223 99.0014 37.2586 99.526 36.6148H99.6061V37.3798C99.6061 39.4136 98.517 40.5011 96.7631 40.5011C95.331 40.5011 94.4434 39.4748 94.0804 38.6086L92.0436 39.4548C92.6283 40.8636 94.1806 42.5961 96.7631 42.5961C99.5059 42.5961 101.826 40.9848 101.826 37.0573V27.5123H99.6073V28.3773H99.6061ZM96.9246 35.7286C95.311 35.7286 93.9602 34.3786 93.9602 32.5261C93.9602 30.6523 95.311 29.2836 96.9246 29.2836C98.517 29.2836 99.7676 30.6523 99.7676 32.5261C99.7676 34.3786 98.517 35.7286 96.9246 35.7286ZM127.446 21.8736H121.849V37.4998H124.184V31.5798H127.445C130.034 31.5798 132.58 29.7086 132.58 26.7273C132.58 23.7461 130.035 21.8736 127.446 21.8736ZM127.506 29.4048H124.184V24.0486H127.506C129.252 24.0486 130.244 25.4923 130.244 26.7273C130.244 27.9373 129.252 29.4048 127.506 29.4048ZM141.942 27.1611C140.251 27.1611 138.5 27.9048 137.775 29.5536L139.848 30.4173C140.291 29.5536 141.117 29.2711 141.983 29.2711C143.191 29.2711 144.419 29.9948 144.439 31.2811V31.4423C144.016 31.2011 143.109 30.8398 142.003 30.8398C139.768 30.8398 137.492 32.0661 137.492 34.3573C137.492 36.4486 139.325 37.7948 141.378 37.7948C142.948 37.7948 143.814 37.0911 144.357 36.2661H144.437V37.4723H146.693V31.4811C146.694 28.7086 144.619 27.1611 141.942 27.1611ZM141.66 35.7248C140.896 35.7248 139.828 35.3423 139.828 34.3973C139.828 33.1911 141.158 32.7286 142.306 32.7286C143.331 32.7286 143.815 32.9498 144.439 33.2511C144.257 34.6998 143.009 35.7248 141.66 35.7248ZM154.908 27.5023L152.23 34.2773H152.15L149.371 27.5023H146.855L151.022 36.9711L148.646 42.2386H151.082L157.505 27.5023H154.908ZM133.869 37.4998H136.204V21.8736H133.869V37.4998Z" fill="#066B7E"/>
    <path d="M59.3604 12.804C59.3604 13.8515 59.0499 14.6852 58.4277 15.3077C57.7217 16.0477 56.8003 16.4177 55.6687 16.4177C54.5846 16.4177 53.6619 16.0427 52.9046 15.2927C52.146 14.5415 51.7666 13.6115 51.7666 12.5015C51.7666 11.3902 52.146 10.4602 52.9046 9.71023C53.6619 8.95898 54.5846 8.58399 55.6687 8.58399C56.207 8.58399 56.7215 8.68898 57.2097 8.89773C57.6992 9.10773 58.091 9.38648 58.3839 9.73523L57.7242 10.3952C57.2272 9.80148 56.5425 9.50523 55.6674 9.50523C54.8762 9.50523 54.1927 9.78274 53.6156 10.3377C53.0385 10.8927 52.7506 11.614 52.7506 12.5002C52.7506 13.3865 53.0385 14.1077 53.6156 14.6627C54.1927 15.2177 54.8762 15.4952 55.6674 15.4952C56.5061 15.4952 57.2059 15.2165 57.7655 14.6577C58.1286 14.294 58.3389 13.7877 58.3952 13.139H55.6674V12.2377H59.3065C59.3441 12.434 59.3604 12.6227 59.3604 12.804Z" fill="#066B7E"/>
    <path d="M65.1315 9.67155H61.7115V12.0491H64.796V12.9503H61.7115V15.3278H65.1315V16.2503H60.7463V8.75031H65.1315V9.67155Z" fill="#066B7E"/>
    <path d="M69.2012 16.2503H68.236V9.67155H66.1379V8.75031H71.2993V9.67155H69.2012V16.2503Z" fill="#066B7E"/>
    <path d="M75.0335 16.2503V8.75031H75.9987V16.2503H75.0335Z" fill="#066B7E"/>
    <path d="M80.2789 16.2503H79.3138V9.67155H77.2157V8.75031H82.377V9.67155H80.2789V16.2503Z" fill="#066B7E"/>
    <path d="M92.1475 15.2815C91.4089 16.039 90.4913 16.4178 89.3934 16.4178C88.2955 16.4178 87.3779 16.039 86.6406 15.2815C85.902 14.524 85.5339 13.5965 85.5339 12.5003C85.5339 11.404 85.902 10.4765 86.6406 9.71904C87.3779 8.96154 88.2955 8.58154 89.3934 8.58154C90.485 8.58154 91.4014 8.96279 92.1425 9.72404C92.8836 10.4853 93.2541 11.4103 93.2541 12.5003C93.2541 13.5965 92.8848 14.524 92.1475 15.2815ZM87.3529 14.6528C87.9087 15.2153 88.5885 15.4953 89.3934 15.4953C90.1983 15.4953 90.8793 15.214 91.4339 14.6528C91.9897 14.0903 92.2689 13.3728 92.2689 12.5003C92.2689 11.6278 91.9897 10.9103 91.4339 10.3478C90.8793 9.78529 90.1983 9.50529 89.3934 9.50529C88.5885 9.50529 87.9087 9.78654 87.3529 10.3478C86.7983 10.9103 86.5191 11.6278 86.5191 12.5003C86.5191 13.3728 86.7983 14.0903 87.3529 14.6528Z" fill="#066B7E"/>
    <path d="M94.6086 16.2503V8.75031H95.7829L99.4333 14.5841H99.4746L99.4333 13.1391V8.75031H100.398V16.2503H99.3907L95.5713 10.1328H95.53L95.5713 11.5778V16.2503H94.6086Z" fill="#066B7E"/>
    <path d="M59.3604 12.804C59.3604 13.8515 59.0499 14.6852 58.4277 15.3077C57.7217 16.0477 56.8003 16.4177 55.6687 16.4177C54.5846 16.4177 53.6619 16.0427 52.9046 15.2927C52.146 14.5415 51.7666 13.6115 51.7666 12.5015C51.7666 11.3902 52.146 10.4602 52.9046 9.71023C53.6619 8.95898 54.5846 8.58399 55.6687 8.58399C56.207 8.58399 56.7215 8.68898 57.2097 8.89773C57.6992 9.10773 58.091 9.38648 58.3839 9.73523L57.7242 10.3952C57.2272 9.80148 56.5425 9.50523 55.6674 9.50523C54.8762 9.50523 54.1927 9.78274 53.6156 10.3377C53.0385 10.8927 52.7506 11.614 52.7506 12.5002C52.7506 13.3865 53.0385 14.1077 53.6156 14.6627C54.1927 15.2177 54.8762 15.4952 55.6674 15.4952C56.5061 15.4952 57.2059 15.2165 57.7655 14.6577C58.1286 14.294 58.3389 13.7877 58.3952 13.139H55.6674V12.2377H59.3065C59.3441 12.434 59.3604 12.6227 59.3604 12.804Z" stroke="#066B7E" stroke-width="0.25" stroke-miterlimit="10"/>
    <path d="M65.1315 9.67155H61.7115V12.0491H64.796V12.9503H61.7115V15.3278H65.1315V16.2503H60.7463V8.75031H65.1315V9.67155Z" stroke="#066B7E" stroke-width="0.25" stroke-miterlimit="10"/>
    <path d="M69.2012 16.2503H68.236V9.67155H66.1379V8.75031H71.2993V9.67155H69.2012V16.2503Z" stroke="#066B7E" stroke-width="0.25" stroke-miterlimit="10"/>
    <path d="M75.0335 16.2503V8.75031H75.9987V16.2503H75.0335Z" stroke="#066B7E" stroke-width="0.25" stroke-miterlimit="10"/>
    <path d="M80.2789 16.2503H79.3138V9.67155H77.2157V8.75031H82.377V9.67155H80.2789V16.2503Z" stroke="#066B7E" stroke-width="0.25" stroke-miterlimit="10"/>
    <path d="M92.1475 15.2815C91.4089 16.039 90.4913 16.4178 89.3934 16.4178C88.2955 16.4178 87.3779 16.039 86.6406 15.2815C85.902 14.524 85.5339 13.5965 85.5339 12.5003C85.5339 11.404 85.902 10.4765 86.6406 9.71904C87.3779 8.96154 88.2955 8.58154 89.3934 8.58154C90.485 8.58154 91.4014 8.96279 92.1425 9.72404C92.8836 10.4853 93.2541 11.4103 93.2541 12.5003C93.2541 13.5965 92.8848 14.524 92.1475 15.2815ZM87.3529 14.6528C87.9087 15.2153 88.5885 15.4953 89.3934 15.4953C90.1983 15.4953 90.8793 15.214 91.4339 14.6528C91.9897 14.0903 92.2689 13.3728 92.2689 12.5003C92.2689 11.6278 91.9897 10.9103 91.4339 10.3478C90.8793 9.78529 90.1983 9.50529 89.3934 9.50529C88.5885 9.50529 87.9087 9.78654 87.3529 10.3478C86.7983 10.9103 86.5191 11.6278 86.5191 12.5003C86.5191 13.3728 86.7983 14.0903 87.3529 14.6528Z" stroke="#066B7E" stroke-width="0.25" stroke-miterlimit="10"/>
    <path d="M94.6086 16.2503V8.75031H95.7829L99.4333 14.5841H99.4746L99.4333 13.1391V8.75031H100.398V16.2503H99.3907L95.5713 10.1328H95.53L95.5713 11.5778V16.2503H94.6086Z" stroke="#066B7E" stroke-width="0.25" stroke-miterlimit="10"/>
    <path fill-rule="evenodd" clip-rule="evenodd" d="M12.7145 9.95775C12.5665 10.2922 12.4847 10.7021 12.4847 11.1789V38.8239C12.4847 39.3017 12.5666 39.7116 12.7147 40.0459L27.7799 25.0009L12.7145 9.95775ZM13.5841 40.9443C14.1425 41.1831 14.8711 41.1075 15.6657 40.6576L33.3887 30.6014L28.6644 25.8841L13.5841 40.9443ZM34.5176 29.9622L40.078 26.8076C41.8269 25.8139 41.8269 24.1901 40.078 23.1976L34.5151 20.0413L29.5489 25.0008L34.5176 29.9622ZM33.387 19.4012L15.6657 9.34636C14.8711 8.89552 14.1425 8.8204 13.584 9.05955L28.6643 24.1176L33.387 19.4012Z" fill="#066B7E"/>
</svg>