<svg width="24" height="24" fill="none" xmlns="http://www.w3.org/2000/svg"><path d="M14.52 2.281A5.753 5.753 0 0 0 9.407 6.7c-.116.5-.167 1.072-.167 1.862v.673l-1.23.012c-1.071.011-1.246.022-1.355.082a.825.825 0 0 0-.373.462c-.059.211-.056 4.216.003 4.428.056.204.292.44.496.496.099.028.593.045 1.309.045h1.15v3.15c0 2.175.014 3.199.045 3.309.056.204.292.44.496.496.22.062 4.218.062 4.438 0a.823.823 0 0 0 .496-.496c.031-.11.045-1.134.045-3.309v-3.15h1.15c.668 0 1.212-.018 1.299-.042a.796.796 0 0 0 .447-.353c.029-.058.292-1.068.584-2.245.504-2.03.529-2.149.484-2.312-.06-.216-.306-.468-.511-.525-.096-.027-.765-.043-1.803-.043h-1.65v-.674c0-.602.008-.681.073-.74.066-.059.239-.066 1.65-.066 1.027 0 1.632-.016 1.736-.045a.823.823 0 0 0 .496-.496c.059-.212.062-4.217.003-4.428a.825.825 0 0 0-.373-.462c-.112-.062-.299-.07-1.785-.074-.913-.003-1.831.009-2.04.026M17.24 5v1.24l-1.11.001c-.61 0-1.236.019-1.39.041-.372.053-.668.206-.964.498-.478.471-.534.705-.535 2.2 0 .667.016 1.141.044 1.239.056.204.292.44.496.496.103.029.703.045 1.713.045 1.227 0 1.551.011 1.536.05-.01.028-.15.584-.313 1.238l-.294 1.187-1.322.013c-1.157.01-1.337.021-1.446.081a.825.825 0 0 0-.373.462c-.027.097-.042 1.256-.042 3.299v3.15h-2.48v-3.15c0-2.043-.015-3.202-.042-3.299a.825.825 0 0 0-.373-.462c-.109-.06-.284-.071-1.355-.082l-1.23-.012V10.76h1.15c.716 0 1.21-.017 1.309-.045a.823.823 0 0 0 .496-.496c.028-.1.045-.612.045-1.379 0-1.294.032-1.634.205-2.159a4.294 4.294 0 0 1 3.281-2.859c.204-.037.706-.055 1.644-.058l1.35-.004V5" fill-rule="evenodd" fill="#000"/></svg>